<svg xmlns="http://www.w3.org/2000/svg" viewBox="0 0 240 240" role="img" aria-label="Chaoshan teapot mascot">
  <!-- steam -->
  <g fill="none" stroke="#bfe8ff" stroke-width="7" stroke-linecap="round" opacity="0.9">
    <path d="M96 46 q-8 -12 2 -22 q9 -9 2 -19"/>
    <path d="M126 42 q-8 -12 2 -22 q9 -9 2 -19"/>
  </g>

  <!-- handle -->
  <path d="M186 118 q34 4 26 32 q-7 24 -34 22" fill="none" stroke="#a85f38" stroke-width="14" stroke-linecap="round"/>

  <!-- spout -->
  <path d="M54 122 q-26 -4 -34 -26 q-3 -9 6 -8 q22 3 34 16 z" fill="#c1734a"/>

  <!-- body -->
  <ellipse cx="120" cy="150" rx="78" ry="64" fill="#c1734a"/>
  <ellipse cx="120" cy="150" rx="78" ry="64" fill="none" stroke="#a85f38" stroke-width="5"/>

  <!-- belly highlight -->
  <ellipse cx="96" cy="128" rx="26" ry="18" fill="#d08a60" opacity="0.7"/>

  <!-- lid -->
  <ellipse cx="120" cy="90" rx="46" ry="14" fill="#a85f38"/>
  <ellipse cx="120" cy="86" rx="46" ry="14" fill="#c1734a" stroke="#a85f38" stroke-width="4"/>
  <circle cx="120" cy="72" r="11" fill="#8a4b2c" stroke="#7a3f24" stroke-width="3"/>

  <!-- face -->
  <circle cx="98" cy="146" r="7.5" fill="#4b2e1e"/>
  <circle cx="142" cy="146" r="7.5" fill="#4b2e1e"/>
  <circle cx="100.5" cy="143.5" r="2.5" fill="#fff"/>
  <circle cx="144.5" cy="143.5" r="2.5" fill="#fff"/>
  <path d="M110 164 q10 10 20 0" fill="none" stroke="#4b2e1e" stroke-width="5" stroke-linecap="round"/>
  <ellipse cx="84" cy="160" rx="9" ry="6" fill="#e8927c" opacity="0.75"/>
  <ellipse cx="156" cy="160" rx="9" ry="6" fill="#e8927c" opacity="0.75"/>

  <!-- teacup friend -->
  <g>
    <ellipse cx="204" cy="206" rx="22" ry="7" fill="#d8d8d8" opacity="0.5"/>
    <path d="M186 186 h36 q2 0 2 3 q-2 18 -20 18 q-18 0 -20 -18 q0 -3 2 -3z" fill="#fff" stroke="#cfcfcf" stroke-width="3"/>
    <ellipse cx="204" cy="188" rx="17" ry="4.5" fill="#bfe8c9"/>
  </g>

  <!-- base shadow -->
  <ellipse cx="112" cy="218" rx="66" ry="9" fill="#d8d8d8" opacity="0.45"/>
</svg>
